<svg id="Layer_1" data-name="Layer 1" xmlns="http://www.w3.org/2000/svg" viewBox="0 0 197.25 25.85"><defs><style>.cls-1{fill:#fff;}</style></defs><path class="cls-1" d="M46.1,13.76H39v1c0,1.18.8,1.77,2.37,1.77a9.23,9.23,0,0,0,3.29-.59l.64,2.57a11.77,11.77,0,0,1-4.22.75c-3.26,0-5.37-1.42-5.37-4.4v-4.5c0-2.88,2-4.48,5.19-4.48s5.18,1.6,5.18,4.48ZM40.92,8.64A1.66,1.66,0,0,0,39,10.49v1H42.8v-1A1.7,1.7,0,0,0,40.92,8.64Z"/><path class="cls-1" d="M55.31,12.55,59.55,19H55.69l-2.16-3.65L51.4,19H47.54l4.27-6.43L47.54,6.12h3.88l2.11,3.65,2.16-3.65h3.86Z"/><path class="cls-1" d="M64.29,14.45c0,1.32.95,2,2.88,2A9.65,9.65,0,0,0,69.66,16l.57,2.7a12.42,12.42,0,0,1-3.71.54c-3.29,0-5.53-1.42-5.53-4.5v-4.2a7,7,0,0,1,.13-1.28c.49-2.34,2.55-3.4,5.4-3.4a12.7,12.7,0,0,1,3.71.51l-.57,2.71a9.74,9.74,0,0,0-2.49-.39c-1.93,0-2.88.64-2.88,2Z"/><path class="cls-1" d="M84.15,10v9H80.88V10.31c0-1-.54-1.49-1.65-1.49a5.09,5.09,0,0,0-2.8,1V19H73.14V1h3.29V7.1a6.84,6.84,0,0,1,3.81-1.24C82.84,5.86,84.15,7.22,84.15,10Z"/><path class="cls-1" d="M88.21,6.43a15.41,15.41,0,0,1,4.2-.57,7.09,7.09,0,0,1,3.81.8c1.1.62,1.69,1.85,1.69,3.68V19H95.47l-.33-1.26a6.93,6.93,0,0,1-4,1.52c-2.45,0-4-1.19-4-4.07A3.53,3.53,0,0,1,88.34,12a6.43,6.43,0,0,1,3.5-.84,14.27,14.27,0,0,1,2.78.3v-1c0-1.21-.93-1.81-2.8-1.81a8.85,8.85,0,0,0-3.12.49Zm3.84,10.21a4.3,4.3,0,0,0,2.57-.9V13.81a8,8,0,0,0-2.21-.26c-1.24,0-2.09.34-2.06,1.67C90.38,16.18,90.94,16.64,92.05,16.64Z"/><path class="cls-1" d="M112.37,10v9h-3.26V10.31c0-1-.54-1.49-1.65-1.49a4.67,4.67,0,0,0-2.8,1V19h-3.3V6.12h2.45l.36,1.23a7.55,7.55,0,0,1,4.29-1.49C111.06,5.86,112.37,7.22,112.37,10Z"/><path class="cls-1" d="M140,13.76h-7.07v1c0,1.18.79,1.77,2.36,1.77a9.28,9.28,0,0,0,3.3-.59l.64,2.57a11.81,11.81,0,0,1-4.22.75c-3.27,0-5.38-1.42-5.38-4.4v-4.5c0-2.88,2-4.48,5.2-4.48S140,7.46,140,10.34Zm-5.17-5.12a1.66,1.66,0,0,0-1.9,1.85v1h3.78v-1A1.7,1.7,0,0,0,134.81,8.64Z"/><path class="cls-1" d="M150.12,8.87a5.69,5.69,0,0,0-3.65.93V19h-3.3V6.12h2.45L146,7.4a7.18,7.18,0,0,1,4.14-1.64Z"/><path class="cls-1" d="M152.64,6.43a15.39,15.39,0,0,1,4.19-.57,7.07,7.07,0,0,1,3.81.8c1.11.62,1.7,1.85,1.7,3.68V19H159.9l-.34-1.26a6.9,6.9,0,0,1-4,1.52c-2.44,0-4-1.19-4-4.07A3.53,3.53,0,0,1,152.77,12a6.38,6.38,0,0,1,3.5-.84,14.35,14.35,0,0,1,2.78.3v-1c0-1.21-.93-1.81-2.81-1.81a8.75,8.75,0,0,0-3.11.49Zm3.83,10.21a4.33,4.33,0,0,0,2.58-.9V13.81a8.1,8.1,0,0,0-2.22-.26c-1.23,0-2.08.34-2.05,1.67C154.8,16.18,155.37,16.64,156.47,16.64Z"/><path class="cls-1" d="M169.54,14.89c0,1,.52,1.49,1.57,1.49a7.09,7.09,0,0,0,1.8-.25l.31,2.7a12,12,0,0,1-3,.41c-2.8,0-4-1.62-4-3.89V8.87h-2V6.12h2V3l3.29-.44V6.12h3.09V8.87h-3.09Z"/><path class="cls-1" d="M185.68,13.76H178.6v1c0,1.18.8,1.77,2.37,1.77a9.23,9.23,0,0,0,3.29-.59l.64,2.57a11.77,11.77,0,0,1-4.22.75c-3.26,0-5.37-1.42-5.37-4.4v-4.5c0-2.88,2-4.48,5.19-4.48s5.18,1.6,5.18,4.48ZM180.5,8.64a1.66,1.66,0,0,0-1.9,1.85v1h3.78v-1A1.7,1.7,0,0,0,180.5,8.64Z"/><path class="cls-1" d="M193.19,11.06a8.55,8.55,0,0,1,3.24,1.64,3.51,3.51,0,0,1,.82,2.52,6.31,6.31,0,0,1-.05.88c-.23,1.75-1.46,3.14-4.35,3.14a13.06,13.06,0,0,1-2.47-.26,9.42,9.42,0,0,1-2.08-.54l.67-2.62a11.92,11.92,0,0,0,3.58.67c1,0,1.46-.36,1.46-1.11,0-.59.05-.67-.44-1.06a4,4,0,0,0-1.15-.54l-1.29-.46c-.28-.1-.59-.23-1-.41a3,3,0,0,1-.77-.52,3.47,3.47,0,0,1-.85-2.7,4.07,4.07,0,0,1,.67-2.57c.54-.82,1.78-1.26,3.63-1.26a12.44,12.44,0,0,1,4.22.72l-.7,2.65a11.73,11.73,0,0,0-3.21-.64c-.9,0-1.34.36-1.34,1.1S191.93,10.65,193.19,11.06Z"/><path class="cls-1" d="M127.73,6h-4.26a4.85,4.85,0,0,0-1.53-.24h-2.18A4.7,4.7,0,0,0,115,10.38v1a4.56,4.56,0,0,0,2,3.75h0A3.83,3.83,0,0,0,115.55,18c0,2.24,2.86,2.38,3.68,2.47s4.83-.14,4.83,1.47-4.59,2.13-8.51.54l-.5,2.52s1.37.94,6.2.8,5.7-1.28,5.7-3.91-.52-3.46-5.52-3.72c-2-.08-2.55-.25-2.49-1.19,0-.43.55-.78,1.11-1h1.89a4.69,4.69,0,0,0,4.76-4.62v-1A4.49,4.49,0,0,0,126,8h0l1.69-.53Zm-6.88,7.48a2.58,2.58,0,1,1,2.66-2.58A2.62,2.62,0,0,1,120.85,13.48Z"/><path class="cls-1" d="M20.93,3.39l-8.52,8.86-9,8.67A12.4,12.4,0,0,1,20.93,3.39Z"/><path class="cls-1" d="M24.81,12.25v.16a12.4,12.4,0,0,1-12.4,12.4V12.25Z"/></svg>
